<?xml version="1.0" encoding="UTF-8" standalone="no"?>
<svg
   xmlns:dc="http://purl.org/dc/elements/1.1/"
   xmlns:cc="http://creativecommons.org/ns#"
   xmlns:rdf="http://www.w3.org/1999/02/22-rdf-syntax-ns#"
   xmlns:svg="http://www.w3.org/2000/svg"
   xmlns="http://www.w3.org/2000/svg"
   xmlns:xlink="http://www.w3.org/1999/xlink"
   xmlns:sodipodi="http://sodipodi.sourceforge.net/DTD/sodipodi-0.dtd"
   xmlns:inkscape="http://www.inkscape.org/namespaces/inkscape"
   width="70"
   height="70"
   viewBox="0 0 70 70"
   version="1.1"
   id="svg31"
   sodipodi:docname="icon.svg"
   inkscape:version="0.92.3 (2405546, 2018-03-11)"
   inkscape:export-filename="icon.png"
   inkscape:export-xdpi="102"
   inkscape:export-ydpi="102">
  <metadata
     id="metadata35">
    <rdf:RDF>
      <cc:Work
         rdf:about="">
        <dc:format>image/svg+xml</dc:format>
        <dc:type
           rdf:resource="http://purl.org/dc/dcmitype/StillImage" />
      </cc:Work>
    </rdf:RDF>
  </metadata>
  <sodipodi:namedview
     pagecolor="#ffffff"
     bordercolor="#666666"
     borderopacity="1"
     objecttolerance="10"
     gridtolerance="10"
     guidetolerance="10"
     inkscape:pageopacity="0"
     inkscape:pageshadow="2"
     inkscape:window-width="1853"
     inkscape:window-height="1025"
     id="namedview33"
     showgrid="false"
     inkscape:zoom="2"
     inkscape:cx="-88.758263"
     inkscape:cy="101.41412"
     inkscape:window-x="67"
     inkscape:window-y="27"
     inkscape:window-maximized="1"
     inkscape:current-layer="svg31"
     showguides="true"
     inkscape:guide-bbox="true"
     inkscape:lockguides="false">
    <sodipodi:guide
       position="12.44066,58.049047"
       orientation="-0.70710678,0.70710678"
       id="guide60"
       inkscape:locked="false" />
    <sodipodi:guide
       position="57.859102,12.295136"
       orientation="-0.70710678,0.70710678"
       id="guide62"
       inkscape:locked="false" />
  </sodipodi:namedview>
  <defs
     id="defs10">
    <path
       id="a"
       d="M4 0h61c4 0 5 1 5 5v60c0 4-1 5-5 5H4c-3 0-4-1-4-5V5c0-4 1-5 4-5z" />
    <linearGradient
       id="c"
       x1="70"
       x2="0"
       y1="0"
       y2="70"
       gradientUnits="userSpaceOnUse">
      <stop
         offset="0%"
         stop-color="#CD7690"
         id="stop3" />
      <stop
         offset="100%"
         stop-color="#CA5377"
         id="stop5" />
    </linearGradient>
    <path
       id="d"
       d="M53 41.498a10.134 10.134 0 0 0-3-.833V27H40c-2 0-3-1-3-3v-7H21v38h18.498a10.224 10.224 0 0 0 2.073 3H20c-1.333 0-2-.667-2-2V16c0-1.333.667-2 2-2h20c2 1 10 7 13 9v18.498zM40 17v7h10l-10-7zm2.703 18.608v1.56c0 .368-.434.67-.963.67H28.26c-.53 0-.963-.302-.963-.67v-1.56c0-.368.434-.669.963-.669h13.48c.53 0 .963.301.963.669zm-.963 5.275c.53 0 .963.3.963.669V42c0 .64-1.173 1.781-1.703 1.781H28.26c-.53 0-.963-.3-.963-.669v-1.56c0-.368.434-.67.963-.67h13.48zM39 47c.259 0 .124.969-.405 2.906H28.003c-.388 0-.706-.3-.706-.669v-1.56c0-.368.318-.67.706-.67L39 47zm16.145 5.143l1.388.8c.158.092.232.28.177.456a8.06 8.06 0 0 1-1.78 3.079.391.391 0 0 1-.483.073l-1.386-.8c-.583.499-1.254.887-1.978 1.143v1.6a.391.391 0 0 1-.305.382 8.137 8.137 0 0 1-3.555 0 .391.391 0 0 1-.306-.381v-1.601a6.236 6.236 0 0 1-1.978-1.144l-1.386.8a.391.391 0 0 1-.483-.072 8.06 8.06 0 0 1-1.78-3.08.391.391 0 0 1 .177-.455l1.388-.8a6.298 6.298 0 0 1 0-2.286l-1.388-.8a.391.391 0 0 1-.177-.456 8.06 8.06 0 0 1 1.78-3.079.391.391 0 0 1 .483-.073l1.386.8a6.236 6.236 0 0 1 1.978-1.143v-1.6c0-.184.126-.342.305-.382a8.137 8.137 0 0 1 3.555 0c.179.04.306.198.306.381v1.601a6.236 6.236 0 0 1 1.978 1.144l1.386-.8a.391.391 0 0 1 .483.072 8.06 8.06 0 0 1 1.78 3.08.391.391 0 0 1-.177.455l-1.388.8c.14.756.14 1.53 0 2.286zM51.605 51A2.607 2.607 0 0 0 49 48.396 2.607 2.607 0 0 0 46.396 51 2.607 2.607 0 0 0 49 53.604 2.607 2.607 0 0 0 51.604 51z" />
    <path
       id="e"
       d="M53 39.498a10.134 10.134 0 0 0-3-.833V25H40c-2 0-3-1-3-3v-7H21v38h18.498a10.224 10.224 0 0 0 2.073 3H20c-1.333 0-2-.667-2-2V14c0-1.333.667-2 2-2h20c2 1 10 7 13 9v18.498zM40 15v7h10l-10-7zm2.703 18.608v1.56c0 .368-.434.67-.963.67H28.26c-.53 0-.963-.302-.963-.67v-1.56c0-.368.434-.669.963-.669h13.48c.53 0 .963.301.963.669zm-.963 5.275c.53 0 .963.3.963.669V40c0 .64-1.173 1.781-1.703 1.781H28.26c-.53 0-.963-.3-.963-.669v-1.56c0-.368.434-.67.963-.67h13.48zM39 45c.259 0 .124.969-.405 2.906H28.003c-.388 0-.706-.3-.706-.669v-1.56c0-.368.318-.67.706-.67L39 45zm16.145 5.143l1.388.8c.158.092.232.28.177.456a8.06 8.06 0 0 1-1.78 3.079.391.391 0 0 1-.483.073l-1.386-.8c-.583.499-1.254.887-1.978 1.143v1.6a.391.391 0 0 1-.305.382 8.137 8.137 0 0 1-3.555 0 .391.391 0 0 1-.306-.381v-1.601a6.236 6.236 0 0 1-1.978-1.144l-1.386.8a.391.391 0 0 1-.483-.072 8.06 8.06 0 0 1-1.78-3.08.391.391 0 0 1 .177-.455l1.388-.8a6.298 6.298 0 0 1 0-2.286l-1.388-.8a.391.391 0 0 1-.177-.456 8.06 8.06 0 0 1 1.78-3.079.391.391 0 0 1 .483-.073l1.386.8a6.236 6.236 0 0 1 1.978-1.143v-1.6c0-.184.126-.342.305-.382a8.137 8.137 0 0 1 3.555 0c.179.04.306.198.306.381v1.601a6.236 6.236 0 0 1 1.978 1.144l1.386-.8a.391.391 0 0 1 .483.072 8.06 8.06 0 0 1 1.78 3.08.391.391 0 0 1-.177.455l-1.388.8c.14.756.14 1.53 0 2.286zM51.605 49A2.607 2.607 0 0 0 49 46.396 2.607 2.607 0 0 0 46.396 49 2.607 2.607 0 0 0 49 51.604 2.607 2.607 0 0 0 51.604 49z" />
    <mask
       fill="#fff"
       id="b">
      <use
         id="use12"
         xlink:href="#a" />
    </mask>
  </defs>
  <path
     d="M 0,0 H 70 V 70 H 0 Z"
     id="path15"
     style="fill:#999999;fill-rule:evenodd"
     inkscape:connector-curvature="0" />
  <path
     d="m 4,1 h 61 c 2.667,0 4.333,0.667 5,2 V 0 H 0 V 3 C 0.667,1.667 2,1 4,1 Z"
     id="path17"
     inkscape:connector-curvature="0"
     style="fill:#ffffff;fill-opacity:0.38299997;fill-rule:evenodd" />
  <path
     d="M 46.563966,69 H 4 C 2,69 0,68 0,65 V 24.391613 l 12.44066,-12.44066 40.783202,3.875041 4.63524,41.87887 z"
     id="path19"
     inkscape:connector-curvature="0"
     style="opacity:0.32400004;fill:#393939;fill-rule:evenodd"
     sodipodi:nodetypes="cssccccc" />
  <path
     d="m 4,69 h 61 c 2.667,0 4.333,-1 5,-3 v 4 H 0 v -4 c 0.667,2 2,3 4,3 z"
     id="path21"
     inkscape:connector-curvature="0"
     style="fill:#000000;fill-opacity:0.38299997;fill-rule:evenodd" />
  <path
     inkscape:connector-curvature="0"
     id="path67"
     style="font-style:normal;font-weight:normal;font-size:medium;line-height:125%;font-family:sans-serif;letter-spacing:0px;word-spacing:0px;fill:#000000;fill-opacity:0.29803922;stroke:none;stroke-width:1.38950801px;stroke-linecap:butt;stroke-linejoin:miter;stroke-opacity:1"
     d="m 56.105735,12.683612 c 1.411219,0 2.605327,0.542777 3.69088,1.519774 0.976998,1.085554 1.519775,2.279662 1.519775,3.690881 v 38.211469 c 0,1.519774 -0.542777,2.713883 -1.519775,3.69088 -1.085553,1.085554 -2.279661,1.519775 -3.69088,1.519775 H 17.894266 c -1.519775,0 -2.713883,-0.434221 -3.690881,-1.519775 -1.085553,-0.976997 -1.519774,-2.171106 -1.519774,-3.69088 V 17.894267 c 0,-1.411219 0.434221,-2.605327 1.519774,-3.690881 0.976998,-0.976997 2.171106,-1.519774 3.690881,-1.519774 z M 42.753432,54.368851 c 3.582325,-1.194108 6.513318,-3.365215 8.684424,-6.513319 2.171107,-3.148104 3.365215,-6.730429 3.365215,-10.746975 0,-3.25666 -0.868442,-6.187653 -2.496772,-8.901536 -1.62833,-2.605327 -3.799436,-4.776433 -6.513319,-6.296208 -2.822438,-1.519774 -5.753431,-2.279661 -9.01009,-2.279661 -3.25666,0 -6.296208,0.759887 -9.010091,2.279661 -2.713883,1.519775 -4.776434,3.690881 -6.296208,6.296208 -1.519774,2.713883 -2.279662,5.644876 -2.279662,8.901536 0,4.016546 1.085554,7.598871 3.365215,10.746975 2.171106,3.148104 5.1021,5.319211 8.79298,6.513319 0.434221,0.108555 0.651332,0.108555 0.868443,-0.108555 0.21711,-0.217111 0.325666,-0.434222 0.325666,-0.759888 v -4.450767 l -1.302664,0.21711 c -1.085553,0 -2.062551,-0.108555 -2.713883,-0.325666 -1.085553,-0.325665 -1.736885,-0.976997 -2.062551,-2.06255 l -0.542776,-1.085554 c -0.434222,-0.759887 -0.976998,-1.302663 -1.411219,-1.519774 -0.325666,-0.108555 -0.542777,-0.325666 -0.651332,-0.542776 -0.217111,-0.325666 0,-0.542777 0.759887,-0.542777 l 0.434221,0.108555 c 0.434221,0.108556 0.759887,0.325666 1.194109,0.542777 0.434221,0.325666 0.759887,0.759887 1.085553,1.194108 0.651332,1.302664 1.628329,1.953996 2.822438,1.953996 0.759887,0.108555 1.628329,0 2.496772,-0.434221 0.108555,-1.085553 0.434221,-1.845441 1.085553,-2.388217 -1.736885,-0.217111 -3.039549,-0.434221 -3.799436,-0.759887 -1.411219,-0.434222 -2.388217,-1.085553 -3.039549,-2.171106 -0.868442,-1.194109 -1.194108,-2.822439 -1.194108,-4.993545 0,-0.868442 0.108555,-1.628329 0.325666,-2.279661 0.217111,-0.651332 0.759887,-1.302664 1.411219,-1.953996 -0.217111,-0.434221 -0.434221,-1.085553 -0.434221,-1.736885 -0.108556,-1.085553 0.108555,-2.062551 0.542776,-3.148104 0.651332,-0.21711 1.62833,0.108556 3.039549,0.759887 l 1.953996,1.194109 C 33.960452,28.641243 35.480226,28.424132 37,28.424132 c 1.519775,0 3.039549,0.217111 4.559323,0.542777 0.542777,-0.325666 1.194109,-0.651332 1.953996,-1.085554 1.302664,-0.651331 2.388217,-0.976997 3.039548,-0.759887 0.434222,1.085553 0.542777,2.062551 0.542777,3.148104 -0.108555,0.651332 -0.217111,1.302664 -0.325666,1.736885 0.651332,0.759887 1.085553,1.411219 1.302664,1.84544 0.325666,0.651332 0.542776,1.519775 0.542776,2.388217 0,2.171106 -0.434221,3.799436 -1.302663,4.993545 -0.651332,1.085553 -1.736885,1.736884 -3.039549,2.171106 -0.868443,0.325666 -2.171106,0.542776 -3.907991,0.759887 0.759887,0.651332 1.194108,1.736885 1.194108,3.256659 v 6.079097 c 0,0.325666 0.108556,0.542777 0.325666,0.759888 0.217111,0.21711 0.434221,0.21711 0.868443,0.108555 z M 32.115011,47.746977 c 0.217111,0 0.325666,-0.108555 0.325666,-0.325666 0,-0.21711 -0.21711,-0.21711 -0.434221,-0.21711 -0.217111,0 -0.325666,0.108555 -0.325666,0.325665 0,0.217111 0.217111,0.217111 0.434221,0.217111 z m -0.976997,-0.108555 c 0,-0.217111 -0.217111,-0.325666 -0.434222,-0.325666 -0.21711,0 -0.325666,0.108555 -0.325666,0.325666 0,0.21711 0.108556,0.21711 0.325666,0.21711 0.217111,0 0.434222,0 0.434222,-0.21711 z m -1.519775,-0.108556 c 0,-0.21711 -0.108555,-0.325665 -0.325666,-0.434221 -0.21711,0 -0.434221,0 -0.434221,0.217111 -0.108555,0.21711 0,0.325666 0.217111,0.325666 0.21711,0.108555 0.434221,0.108555 0.542776,-0.108556 z m -1.302664,-0.651331 c 0,0 0,-0.217111 -0.21711,-0.434222 -0.217111,-0.21711 -0.325666,-0.21711 -0.434221,-0.108555 -0.108556,0.217111 -0.108556,0.325666 0.108555,0.542777 0.217111,0.21711 0.325666,0.21711 0.542776,0 z m -0.976997,-0.976998 c 0.108555,0 0.108555,-0.217111 0,-0.434221 -0.217111,-0.217111 -0.325666,-0.217111 -0.434222,-0.108556 -0.21711,0.108556 -0.21711,0.217111 0,0.434221 0.108556,0.217111 0.217111,0.217111 0.434222,0.108556 z m -0.759887,-1.085553 c 0.108555,0 0.108555,-0.108556 0,-0.325666 -0.217111,-0.108556 -0.325666,-0.108556 -0.434222,0 -0.108555,0.108555 -0.108555,0.21711 0.108556,0.325666 0.108555,0.21711 0.21711,0.21711 0.325666,0 z m -0.759888,-0.759887 c 0,0 0,-0.108556 -0.108555,-0.217111 -0.217111,0 -0.325666,0 -0.325666,0 -0.108555,0.108555 -0.108555,0.217111 0.108555,0.325666 0.217111,0.108555 0.325666,0.108555 0.325666,-0.108555 z" />
  <path
     inkscape:connector-curvature="0"
     id="path64"
     style="font-style:normal;font-weight:normal;font-size:medium;line-height:125%;font-family:sans-serif;letter-spacing:0px;word-spacing:0px;fill:#ffffff;fill-opacity:1;stroke:none;stroke-width:1.38950801px;stroke-linecap:butt;stroke-linejoin:miter;stroke-opacity:1"
     d="m 54.105735,10.683612 c 1.411219,0 2.605327,0.542777 3.69088,1.519774 0.976998,1.085554 1.519775,2.279662 1.519775,3.690881 v 38.211469 c 0,1.519774 -0.542777,2.713883 -1.519775,3.69088 -1.085553,1.085554 -2.279661,1.519775 -3.69088,1.519775 H 15.894266 c -1.519775,0 -2.713883,-0.434221 -3.690881,-1.519775 -1.085553,-0.976997 -1.519774,-2.171106 -1.519774,-3.69088 V 15.894267 c 0,-1.411219 0.434221,-2.605327 1.519774,-3.690881 0.976998,-0.976997 2.171106,-1.519774 3.690881,-1.519774 z M 40.753432,52.368851 c 3.582325,-1.194108 6.513318,-3.365215 8.684424,-6.513319 2.171107,-3.148104 3.365215,-6.730429 3.365215,-10.746975 0,-3.25666 -0.868442,-6.187653 -2.496772,-8.901536 -1.62833,-2.605327 -3.799436,-4.776433 -6.513319,-6.296208 -2.822438,-1.519774 -5.753431,-2.279661 -9.01009,-2.279661 -3.25666,0 -6.296208,0.759887 -9.010091,2.279661 -2.713883,1.519775 -4.776434,3.690881 -6.296208,6.296208 -1.519774,2.713883 -2.279662,5.644876 -2.279662,8.901536 0,4.016546 1.085554,7.598871 3.365215,10.746975 2.171106,3.148104 5.1021,5.319211 8.79298,6.513319 0.434221,0.108555 0.651332,0.108555 0.868443,-0.108555 0.21711,-0.217111 0.325666,-0.434222 0.325666,-0.759888 v -4.450767 l -1.302664,0.21711 c -1.085553,0 -2.062551,-0.108555 -2.713883,-0.325666 -1.085553,-0.325665 -1.736885,-0.976997 -2.062551,-2.06255 l -0.542776,-1.085554 c -0.434222,-0.759887 -0.976998,-1.302663 -1.411219,-1.519774 -0.325666,-0.108555 -0.542777,-0.325666 -0.651332,-0.542776 -0.217111,-0.325666 0,-0.542777 0.759887,-0.542777 l 0.434221,0.108555 c 0.434221,0.108556 0.759887,0.325666 1.194109,0.542777 0.434221,0.325666 0.759887,0.759887 1.085553,1.194108 0.651332,1.302664 1.628329,1.953996 2.822438,1.953996 0.759887,0.108555 1.628329,0 2.496772,-0.434221 0.108555,-1.085553 0.434221,-1.845441 1.085553,-2.388217 -1.736885,-0.217111 -3.039549,-0.434221 -3.799436,-0.759887 -1.411219,-0.434222 -2.388217,-1.085553 -3.039549,-2.171106 -0.868442,-1.194109 -1.194108,-2.822439 -1.194108,-4.993545 0,-0.868442 0.108555,-1.628329 0.325666,-2.279661 0.217111,-0.651332 0.759887,-1.302664 1.411219,-1.953996 -0.217111,-0.434221 -0.434221,-1.085553 -0.434221,-1.736885 -0.108556,-1.085553 0.108555,-2.062551 0.542776,-3.148104 0.651332,-0.21711 1.62833,0.108556 3.039549,0.759887 l 1.953996,1.194109 C 31.960452,26.641243 33.480226,26.424132 35,26.424132 c 1.519775,0 3.039549,0.217111 4.559323,0.542777 0.542777,-0.325666 1.194109,-0.651332 1.953996,-1.085554 1.302664,-0.651331 2.388217,-0.976997 3.039548,-0.759887 0.434222,1.085553 0.542777,2.062551 0.542777,3.148104 -0.108555,0.651332 -0.217111,1.302664 -0.325666,1.736885 0.651332,0.759887 1.085553,1.411219 1.302664,1.84544 0.325666,0.651332 0.542776,1.519775 0.542776,2.388217 0,2.171106 -0.434221,3.799436 -1.302663,4.993545 -0.651332,1.085553 -1.736885,1.736884 -3.039549,2.171106 -0.868443,0.325666 -2.171106,0.542776 -3.907991,0.759887 0.759887,0.651332 1.194108,1.736885 1.194108,3.256659 v 6.079097 c 0,0.325666 0.108556,0.542777 0.325666,0.759888 0.217111,0.21711 0.434221,0.21711 0.868443,0.108555 z M 30.115011,45.746977 c 0.217111,0 0.325666,-0.108555 0.325666,-0.325666 0,-0.21711 -0.21711,-0.21711 -0.434221,-0.21711 -0.217111,0 -0.325666,0.108555 -0.325666,0.325665 0,0.217111 0.217111,0.217111 0.434221,0.217111 z m -0.976997,-0.108555 c 0,-0.217111 -0.217111,-0.325666 -0.434222,-0.325666 -0.21711,0 -0.325666,0.108555 -0.325666,0.325666 0,0.21711 0.108556,0.21711 0.325666,0.21711 0.217111,0 0.434222,0 0.434222,-0.21711 z m -1.519775,-0.108556 c 0,-0.21711 -0.108555,-0.325665 -0.325666,-0.434221 -0.21711,0 -0.434221,0 -0.434221,0.217111 -0.108555,0.21711 0,0.325666 0.217111,0.325666 0.21711,0.108555 0.434221,0.108555 0.542776,-0.108556 z m -1.302664,-0.651331 c 0,0 0,-0.217111 -0.21711,-0.434222 -0.217111,-0.21711 -0.325666,-0.21711 -0.434221,-0.108555 -0.108556,0.217111 -0.108556,0.325666 0.108555,0.542777 0.217111,0.21711 0.325666,0.21711 0.542776,0 z m -0.976997,-0.976998 c 0.108555,0 0.108555,-0.217111 0,-0.434221 -0.217111,-0.217111 -0.325666,-0.217111 -0.434222,-0.108556 -0.21711,0.108556 -0.21711,0.217111 0,0.434221 0.108556,0.217111 0.217111,0.217111 0.434222,0.108556 z m -0.759887,-1.085553 c 0.108555,0 0.108555,-0.108556 0,-0.325666 -0.217111,-0.108556 -0.325666,-0.108556 -0.434222,0 -0.108555,0.108555 -0.108555,0.21711 0.108556,0.325666 0.108555,0.21711 0.21711,0.21711 0.325666,0 z m -0.759888,-0.759887 c 0,0 0,-0.108556 -0.108555,-0.217111 -0.217111,0 -0.325666,0 -0.325666,0 -0.108555,0.108555 -0.108555,0.217111 0.108555,0.325666 0.217111,0.108555 0.325666,0.108555 0.325666,-0.108555 z" />
</svg>
